<svg width="80" height="80" viewBox="0 0 80 80" fill="none" xmlns="http://www.w3.org/2000/svg">
<path d="M47.0319 7.34417C49.2919 7.34417 51.5534 7.60495 53.7536 8.11931C54.6786 8.33509 55.6024 7.76119 55.8184 6.83684C56.0345 5.91248 55.4605 4.98797 54.5361 4.77203C52.0796 4.19783 49.555 3.90674 47.032 3.90674C39.9575 3.90674 33.2053 6.12154 27.5051 10.3119C21.8049 14.5023 17.6764 20.2861 15.5656 27.0385C15.2824 27.9444 15.7874 28.9084 16.6933 29.1917C16.864 29.245 17.0367 29.2705 17.2065 29.2705C17.9384 29.2705 18.6167 28.7994 18.8465 28.0641C22.7205 15.6707 34.0473 7.34417 47.0319 7.34417Z" fill="#FF4A12"/>
<path d="M73.4646 17.1718C72.8975 16.4107 71.8206 16.2539 71.0594 16.8209C70.2984 17.3881 70.1413 18.4649 70.7086 19.226C74.1407 23.8306 76.1708 29.4299 76.5113 35.156H55.4131C54.5252 35.156 53.8028 34.4335 53.8028 33.5457C53.8028 30.7625 51.5387 28.4983 48.7554 28.4983C46.7075 28.4983 45.0413 26.8321 45.0413 24.7842C45.0413 22.7362 46.7073 21.07 48.7554 21.07H53.6442C54.3959 21.07 55.1256 20.9182 55.8134 20.6189C56.6837 20.2402 57.0823 19.2276 56.7034 18.3571C56.3247 17.4868 55.3125 17.0881 54.4416 17.467C54.1892 17.5768 53.9206 17.6326 53.6439 17.6326H48.7554C44.8121 17.6326 41.6038 20.8408 41.6038 24.7842C41.6038 28.7275 44.8119 31.9358 48.7554 31.9358C49.6432 31.9358 50.3654 32.6579 50.3654 33.5457C50.3654 36.3288 52.6296 38.5931 55.413 38.5934H76.5132C75.6202 54.08 62.7383 66.4054 47.032 66.4054C45.5952 66.4054 44.1457 66.2991 42.7243 66.0896C41.7854 65.9517 40.9117 66.6002 40.7732 67.5393C40.6348 68.4783 41.284 69.3519 42.2229 69.4903C43.8097 69.7244 45.4278 69.843 47.032 69.843C65.2107 69.843 80.0001 55.0536 80.0001 36.8749C80 29.8231 77.6789 22.8258 73.4646 17.1718Z" fill="#FF4A12"/>
<path d="M33.9703 63.36C31.9086 62.3431 29.9652 61.0839 28.1945 59.6171C27.4635 59.0116 26.38 59.1132 25.7745 59.8444C25.169 60.5755 25.2708 61.6589 26.0018 62.2644C27.9787 63.9017 30.1482 65.3076 32.45 66.4427C32.6944 66.5634 32.9536 66.6204 33.2089 66.6204C33.8426 66.6204 34.4523 66.2684 34.7515 65.6615C35.1715 64.8103 34.8217 63.7798 33.9703 63.36Z" fill="#FF4A12"/>
<path d="M63.3149 0.000732422C56.767 0.000732422 51.4399 5.32766 51.4399 11.8755C51.4399 17.6946 57.2637 24.3028 61.1176 28.6755C61.4349 29.0358 61.7372 29.3786 62.0193 29.7022C62.3457 30.0766 62.818 30.2914 63.3147 30.2914C63.8114 30.2914 64.2838 30.0766 64.6103 29.7022C64.8923 29.3786 65.1948 29.0353 65.5123 28.675C69.3658 24.3024 75.1895 17.6944 75.1895 11.8755C75.1896 5.32766 69.8626 0.000732422 63.3149 0.000732422ZM63.3149 25.9694C59.9901 22.1908 54.8774 16.2257 54.8774 11.8755C54.8774 7.22309 58.6625 3.43817 63.3149 3.43817C67.9671 3.43817 71.7522 7.22309 71.7522 11.8755C71.7522 16.2259 66.6393 22.1909 63.3149 25.9694Z" fill="#FF4A12"/>
<path d="M63.3149 6.52979C60.3671 6.52979 57.9689 8.92802 57.9689 11.8756C57.9689 14.8232 60.3671 17.2215 63.3149 17.2215C66.2625 17.2215 68.6607 14.8232 68.6607 11.8756C68.6607 8.92802 66.2625 6.52979 63.3149 6.52979ZM63.3149 13.784C62.2625 13.784 61.4063 12.9279 61.4063 11.8756C61.4063 10.8233 62.2624 9.96722 63.3149 9.96722C64.367 9.96722 65.2233 10.8233 65.2233 11.8756C65.2233 12.9279 64.367 13.784 63.3149 13.784Z" fill="#FF4A12"/>
<path d="M36.4538 36.0285C37.1482 34.8198 37.3305 33.4129 36.9671 32.067C36.6035 30.7211 35.7376 29.5974 34.5289 28.9028C32.0339 27.4693 28.8374 28.3324 27.4051 30.8245C26.8062 31.8619 26.0526 32.7711 25.1815 33.5303C25.204 33.3084 25.2156 33.0832 25.2156 32.8556C25.2156 29.1939 22.2367 26.2151 18.5751 26.2151C14.9135 26.2151 11.9346 29.1939 11.9346 32.8556C11.9346 33.0835 11.9462 33.3089 11.9687 33.5309C11.0979 32.7723 10.3449 31.8639 9.74668 30.8277C9.05216 29.6189 7.92828 28.753 6.58252 28.3896C5.23693 28.0261 3.82977 28.2085 2.62104 28.903C1.41216 29.5975 0.546236 30.7213 0.182806 32.067C-0.180781 33.4129 0.0015593 34.8198 0.697952 36.0315C2.63713 39.3903 5.42755 42.1192 8.80951 43.9769V74.2571C8.80951 77.4233 11.3854 79.9992 14.5516 79.9992C16.117 79.9992 17.5381 79.3694 18.5749 78.3502C19.6118 79.3694 21.0329 79.9992 22.5983 79.9992C25.7645 79.9992 28.3404 77.4233 28.3404 74.2571V43.9769C31.7223 42.1192 34.5128 39.39 36.4538 36.0285ZM18.5749 29.6524C20.3412 29.6524 21.778 31.0892 21.778 32.8554C21.778 34.6216 20.3412 36.0585 18.5749 36.0585C16.8087 36.0585 15.3719 34.6216 15.3719 32.8554C15.3719 31.0894 16.8087 29.6524 18.5749 29.6524ZM22.5983 76.5618C21.3275 76.5618 20.2937 75.5279 20.2937 74.2571V59.8785C20.2937 58.9293 19.5241 58.1598 18.5749 58.1598C17.6257 58.1598 16.8562 58.9293 16.8562 59.8785V74.2571C16.8562 75.5279 15.8223 76.5618 14.5516 76.5618C13.2808 76.5618 12.2469 75.5279 12.2469 74.2571V53.7849H24.9029V74.2571C24.9029 75.5279 23.8691 76.5618 22.5983 76.5618ZM25.872 41.3843C25.2793 41.6715 24.9029 42.2723 24.9029 42.9309V50.3474H12.2469V42.9309C12.2469 42.2723 11.8705 41.6715 11.2779 41.3842C8.08015 39.8345 5.45114 37.3892 3.67664 34.3157C3.43946 33.9031 3.37727 33.4229 3.50149 32.9634C3.62555 32.504 3.92117 32.1203 4.33366 31.8833C4.74662 31.6461 5.22693 31.584 5.68598 31.7079C6.14534 31.832 6.52909 32.1276 6.76783 32.5432C9.21591 36.7833 13.6097 39.4061 18.5215 39.5592C18.5573 39.5603 18.5929 39.5603 18.6287 39.5592C23.5403 39.4062 27.9341 36.7833 30.3838 32.5403C30.8733 31.6886 31.9642 31.3936 32.8162 31.8833C33.2289 32.1204 33.5245 32.504 33.6486 32.9634C33.7726 33.4228 33.7104 33.9031 33.4751 34.3126C31.6987 37.3891 29.0696 39.8345 25.872 41.3843Z" fill="#FF4A12"/>
<path d="M41.4651 59.3746H39.2777V56.2221C39.2777 55.2729 38.5082 54.5034 37.559 54.5034C36.6098 54.5034 35.8403 55.2729 35.8403 56.2221V59.3746H33.6528C32.7036 59.3746 31.9341 60.1441 31.9341 61.0933V78.2805C31.9341 79.2297 32.7036 79.9992 33.6528 79.9992H41.4651C42.4143 79.9992 43.1839 79.2297 43.1839 78.2805V61.0933C43.1839 60.1441 42.4143 59.3746 41.4651 59.3746ZM39.7464 76.5617H35.3715V62.812H39.7464V76.5617Z" fill="#FF4A12"/>
</svg>
