<svg width="80" height="80" viewBox="0 0 80 80" fill="none" xmlns="http://www.w3.org/2000/svg">
<g clip-path="url(#clip0_1102_34032)">
<path d="M31.632 37.5498L35.1209 52.7543C35.2398 53.2718 35.6131 53.6937 36.1125 53.8742C36.2853 53.9367 36.4651 53.9673 36.6437 53.9673C36.9811 53.9673 37.3148 53.8579 37.5909 53.6476L43.408 49.2151C43.7519 48.9531 43.9717 48.5602 44.0156 48.1301L46.1295 27.3165L53.4428 22.1543C55.1964 20.9387 56.3455 19.1084 56.6784 17.0009C57.0116 14.8934 56.4827 12.7981 55.1895 11.1012C53.8964 9.40399 52.0164 8.33821 49.8959 8.10009C47.7758 7.86181 45.7062 8.48446 44.0791 9.84415L37.1514 15.5342L16.5226 12.0507C16.0967 11.9785 15.6594 12.0865 15.3155 12.3485L9.49843 16.7812C9.07609 17.1031 8.84609 17.6173 8.8878 18.1467C8.92952 18.676 9.23687 19.1479 9.70452 19.3998L23.4387 26.7976L15.4097 33.3921L6.77468 31.809C6.34218 31.7301 5.89577 31.8363 5.54593 32.1031L0.615461 35.8599C0.186398 36.1868 -0.0436018 36.7118 0.00671067 37.2487C0.0570232 37.7856 0.380773 38.2587 0.862961 38.4999L7.43452 41.7888L7.70171 46.1926C7.73999 46.8251 8.15655 47.3718 8.75624 47.5767L12.9314 49.0027L14.3591 56.2113C14.4639 56.7404 14.8341 57.1779 15.3384 57.369C15.5178 57.437 15.7053 57.4702 15.8917 57.4702C16.2289 57.4702 16.5626 57.361 16.8389 57.1506L21.7694 53.3935C22.1194 53.1268 22.3406 52.7251 22.3789 52.2868L23.1436 43.5413L31.632 37.5498ZM40.9748 47.1404L37.6247 49.6932L34.3914 35.6021L42.7458 29.7051L40.9748 47.1404ZM13.3205 17.7977L16.6705 15.2449L33.9508 18.1632L26.0486 24.6537L13.3205 17.7977ZM6.89046 35.0073L12.2473 35.9893L8.68124 38.9185L4.50249 36.8271L6.89046 35.0073ZM10.5437 41.4326L46.0725 12.2509C47.0487 11.4351 48.2828 11.0638 49.5472 11.2059C50.8116 11.3477 51.9325 11.9834 52.7036 12.9954C53.4748 14.0074 53.7901 15.2568 53.5916 16.5135C53.393 17.7702 52.7078 18.8617 51.6514 19.594L14.1 46.0998L10.7576 44.9581L10.5437 41.4326ZM19.3258 51.3267L16.9378 53.1463L16.03 48.5624L19.8001 45.9012L19.3258 51.3267Z" fill="#FF4A12"/>
<path d="M76.9455 63.9826C77.2623 62.8008 77.4225 61.581 77.4225 60.3422C77.4225 52.6049 71.1276 46.3101 63.3901 46.3101C58.515 46.3101 53.9722 48.8883 51.4387 52.9879C50.4097 52.6436 49.3231 52.4649 48.2331 52.4649C42.6811 52.4649 38.1642 56.9818 38.1642 62.5338C38.1642 62.716 38.1691 62.8982 38.1789 63.0802C35.4584 64.3618 33.6516 67.1297 33.6516 70.2157C33.6516 70.2871 33.6525 70.358 33.6545 70.4288C33.6773 71.2751 34.3698 71.9493 35.2164 71.9493H78.4353C79.2819 71.9493 79.9745 71.2751 79.9972 70.4288C79.9992 70.358 80.0001 70.2869 80.0001 70.2157C80 67.7499 78.8556 65.4616 76.9455 63.9826ZM36.9848 68.8243C37.4547 67.2922 38.6816 66.0582 40.2831 65.6229C41.0695 65.4091 41.5597 64.6269 41.4089 63.826C41.3294 63.4035 41.2891 62.9688 41.2891 62.5337C41.2891 58.7047 44.4042 55.5897 48.233 55.5897C49.3558 55.5897 50.4264 55.849 51.4155 56.3601C51.7909 56.5543 52.2294 56.5879 52.6301 56.4532C53.0309 56.3187 53.3601 56.0272 53.5425 55.6458C55.3455 51.873 59.2108 49.4351 63.3898 49.4351C69.4041 49.4351 74.2972 54.328 74.2972 60.3422C74.2972 61.6355 74.0734 62.9007 73.6322 64.1024C73.3637 64.8333 73.6744 65.6502 74.3605 66.018C75.4886 66.6229 76.3058 67.639 76.6676 68.8243H36.9848Z" fill="#FF4A12"/>
<path d="M54.1558 35.1531C52.5494 36.077 51.5069 37.8103 51.5069 39.7271C51.5069 39.7751 51.5075 39.8229 51.5089 39.8704C51.5321 40.7164 52.2246 41.3901 53.0708 41.3901H78.4363C79.2825 41.3901 79.975 40.7164 79.9981 39.8704C79.9996 39.8229 80.0002 39.7751 80.0002 39.7271C80.0002 38.2235 79.3641 36.8189 78.2835 35.8329C78.4191 35.2118 78.4875 34.5762 78.4875 33.9325C78.4875 29.0354 74.5035 25.0515 69.6064 25.0515C66.6888 25.0515 63.9591 26.5107 62.3152 28.8632C61.7917 28.7315 61.2517 28.6639 60.7105 28.6639C57.1178 28.6637 54.191 31.5687 54.1558 35.1531ZM57.3396 35.8585C57.3003 35.6492 57.2803 35.434 57.2803 35.2189C57.2803 33.3276 58.8191 31.7889 60.7102 31.7889C61.265 31.7889 61.7939 31.9167 62.2819 32.169C62.6577 32.3632 63.096 32.3967 63.4966 32.262C63.8974 32.1275 64.2266 31.836 64.4089 31.4546C65.3606 29.4634 67.4005 28.1767 69.6061 28.1767C72.78 28.1767 75.3622 30.7589 75.3622 33.9326C75.3622 34.6154 75.2441 35.2831 75.0114 35.9168C74.743 36.6476 75.0536 37.4646 75.7397 37.8326C75.953 37.947 76.1417 38.0939 76.3011 38.2654H55.2064C55.4725 37.9784 55.8177 37.7625 56.2136 37.6548C56.9999 37.441 57.4899 36.6592 57.3396 35.8585Z" fill="#FF4A12"/>
</g>
<defs>
<clipPath id="clip0_1102_34032">
<rect width="80" height="80" fill="white"/>
</clipPath>
</defs>
</svg>
