<svg width="80" height="80" viewBox="0 0 80 80" fill="none" xmlns="http://www.w3.org/2000/svg">
<g clip-path="url(#clip0_1102_34089)">
<path d="M63.2663 33.4956H31.0534C30.1042 33.4956 29.3347 32.726 29.3347 31.7768C29.3347 30.8276 30.1042 30.0581 31.0534 30.0581H63.2663C70.5978 30.0581 76.5625 24.0934 76.5625 16.7618C76.5625 9.43026 70.5978 3.46558 63.2663 3.46558H16.7337C9.40219 3.46558 3.4375 9.43026 3.4375 16.7617C3.4375 24.0932 9.40219 30.0579 16.7337 30.0579H20.2245C21.1737 30.0579 21.9433 30.8275 21.9433 31.7767C21.9433 32.7259 21.1737 33.4954 20.2245 33.4954H16.7337C7.50672 33.4956 0 25.9889 0 16.7618C0 7.53479 7.50672 0.0280762 16.7337 0.0280762H63.2664C72.4933 0.0280762 80 7.5348 80 16.7617C80 25.9889 72.4933 33.4956 63.2663 33.4956Z" fill="#FF4A12"/>
<path d="M68.3004 20.5718L63.7454 16.1774L67.8854 12.3719C68.5843 11.7296 68.63 10.6422 67.9875 9.94332C67.3452 9.24441 66.2579 9.19863 65.5589 9.84098L62.6104 12.5513V10.9697C62.6104 10.0205 61.8408 9.25098 60.8916 9.25098C59.9424 9.25098 59.1729 10.0205 59.1729 10.9697V21.8088C59.1729 22.758 59.9424 23.5275 60.8916 23.5275C61.8408 23.5275 62.6104 22.758 62.6104 21.8088V19.8589L65.9136 23.0458C66.2472 23.3677 66.6774 23.5275 67.1069 23.5275C67.5571 23.5275 68.0068 23.3516 68.3439 23.0021C69.003 22.3189 68.9835 21.2308 68.3004 20.5718Z" fill="#FF4A12"/>
<path d="M19.7405 15.747C20.068 15.1481 20.2544 14.4617 20.2544 13.7323C20.2544 11.4094 18.3645 9.51953 16.0416 9.51953H12.8931C11.9439 9.51953 11.1744 10.2891 11.1744 11.2383V16.2294V16.2375V22.0773C11.1744 22.5345 11.3566 22.9728 11.6805 23.2953C12.0027 23.6161 12.4388 23.7961 12.8931 23.7961H12.9008C12.9011 23.7961 15.7941 23.7831 16.5914 23.7831C19.1478 23.7831 21.2278 21.7033 21.2278 19.1469C21.2277 17.8047 20.6538 16.5944 19.7405 15.747ZM14.6119 12.957H16.0416C16.4691 12.957 16.8169 13.3048 16.8169 13.7323C16.8169 14.1598 16.4691 14.5077 16.0416 14.5077C15.7641 14.5077 15.1928 14.5095 14.6119 14.5116V12.957ZM16.5914 20.3456C16.2189 20.3456 15.3908 20.3484 14.6119 20.3514V17.9491C15.1861 17.9469 15.7509 17.9452 16.0316 17.9452L16.5914 17.9481C17.2523 17.9481 17.7903 18.4859 17.7903 19.1469C17.7903 19.8078 17.2523 20.3456 16.5914 20.3456Z" fill="#FF4A12"/>
<path d="M48.3171 23.7961C44.3811 23.7961 41.1787 20.5939 41.1787 16.6578C41.1787 12.7217 44.3809 9.51953 48.3171 9.51953C52.2531 9.51953 55.4554 12.7217 55.4554 16.6578C55.4554 20.5939 52.2532 23.7961 48.3171 23.7961ZM48.3171 12.957C46.2764 12.957 44.6162 14.6172 44.6162 16.6578C44.6162 18.6984 46.2764 20.3586 48.3171 20.3586C50.3578 20.3586 52.0179 18.6984 52.0179 16.6578C52.0179 14.6172 50.3578 12.957 48.3171 12.957Z" fill="#FF4A12"/>
<path d="M31.0534 23.7961C27.1175 23.7961 23.9152 20.5939 23.9152 16.6578C23.9152 12.7217 27.1173 9.51953 31.0534 9.51953C34.9895 9.51953 38.1919 12.7217 38.1919 16.6578C38.1919 20.5939 34.9897 23.7961 31.0534 23.7961ZM31.0534 12.957C29.0128 12.957 27.3527 14.6172 27.3527 16.6578C27.3527 18.6984 29.0128 20.3586 31.0534 20.3586C33.0942 20.3586 34.7544 18.6984 34.7544 16.6578C34.7544 14.6172 33.0942 12.957 31.0534 12.957Z" fill="#FF4A12"/>
<path d="M42.5646 79.972H37.4355C27.3264 79.972 19.1021 71.7476 19.1021 61.6386L19.1364 32.7372C19.1364 29.15 22.0564 26.23 25.6456 26.23C29.2349 26.23 32.1549 29.15 32.1549 32.7392V42.8751C33.0703 42.3829 34.1164 42.1037 35.2266 42.1037C37.1197 42.1037 38.8266 42.9159 40.0171 44.2105C41.2075 42.9159 42.9146 42.1037 44.8077 42.1037C46.7006 42.1037 48.4077 42.9162 49.5981 44.2105C50.7886 42.9162 52.4956 42.1037 54.3886 42.1037C57.9778 42.1037 60.8978 45.0239 60.8978 48.6131V61.6386C60.898 71.7476 52.6736 79.972 42.5646 79.972ZM25.6456 29.6675C23.9519 29.6675 22.5739 31.0454 22.5739 32.7392L22.5396 61.6406C22.5396 69.8522 29.2219 76.5345 37.4355 76.5345H42.5646C50.7781 76.5345 57.4605 69.8522 57.4605 61.6386V48.6131C57.4605 46.9194 56.0825 45.5412 54.3888 45.5412C52.695 45.5412 51.3171 46.9192 51.3171 48.6131C51.3171 49.5623 50.5475 50.3319 49.5983 50.3319C48.6491 50.3319 47.8796 49.5623 47.8796 48.6131C47.8796 46.9194 46.5016 45.5412 44.8078 45.5412C43.1139 45.5412 41.736 46.9192 41.736 48.6131C41.736 49.5623 40.9664 50.3319 40.0172 50.3319C39.068 50.3319 38.2985 49.5623 38.2985 48.6131C38.2985 46.9194 36.9205 45.5412 35.2267 45.5412C33.533 45.5412 32.155 46.9192 32.155 48.6131C32.155 49.5623 31.3855 50.3319 30.4363 50.3319C29.4871 50.3319 28.7175 49.5623 28.7175 48.6131V32.7392C28.7174 31.0453 27.3394 29.6675 25.6456 29.6675Z" fill="#FF4A12"/>
</g>
<defs>
<clipPath id="clip0_1102_34089">
<rect width="80" height="80" fill="white"/>
</clipPath>
</defs>
</svg>
