<svg width="81" height="80" viewBox="0 0 81 80" fill="none" xmlns="http://www.w3.org/2000/svg">
<path d="M71.4091 32.4874H67.8724V22.3279C67.8724 19.7432 65.7696 17.6404 63.1849 17.6404H60.8412V10.9375C60.8412 8.35278 58.7383 6.24998 56.1537 6.24998H46.7643V4.68748C46.7643 3.82452 46.0646 3.12499 45.2018 3.12499H37.1217C36.4769 1.30609 34.7391 0 32.7019 0C30.6647 0 28.9269 1.30609 28.2821 3.12499H20.2019C19.339 3.12499 18.6394 3.82452 18.6394 4.68748V6.24998H9.2501C6.66543 6.24998 4.56262 8.35278 4.56262 10.9375V68.7216C4.56262 71.3063 6.66543 73.4091 9.2501 73.4091H42.3684C42.8659 74.927 44.0678 76.1289 45.5857 76.6264V78.4373C45.5857 79.3003 46.2854 79.9998 47.1482 79.9998C48.011 79.9998 48.7107 79.3003 48.7107 78.4373V76.8749H69.8466V78.4373C69.8466 79.3003 70.5463 79.9998 71.4091 79.9998C72.2719 79.9998 72.9716 79.3003 72.9716 78.4373V76.6263C74.9816 75.9675 76.4373 74.0738 76.4373 71.8464V37.5158C76.4373 34.7431 74.1816 32.4874 71.4091 32.4874ZM53.8099 35.6124H64.7474V37.1749C64.7474 38.0364 64.0465 38.7373 63.1849 38.7373H55.3724C54.5109 38.7373 53.8099 38.0364 53.8099 37.1749V35.6124ZM53.8099 32.4874V27.0154H64.7474V32.4874H53.8099ZM64.7474 22.3279V23.8904H53.8099V22.3279C53.8099 21.4663 54.5109 20.7654 55.3724 20.7654H63.1849C64.0465 20.7654 64.7474 21.4663 64.7474 22.3279ZM21.7646 6.24998H29.5771C30.44 6.24998 31.1395 5.55045 31.1395 4.68748C31.1395 3.82592 31.8405 3.12499 32.702 3.12499C33.5636 3.12499 34.2645 3.82592 34.2645 4.68748C34.2645 5.55045 34.9641 6.24998 35.827 6.24998H43.6395V10.9375H21.7646V6.24998ZM7.68761 68.7218V10.9375C7.68761 10.0759 8.38854 9.37496 9.2501 9.37496H18.6394V12.5C18.6394 13.3629 19.339 14.0624 20.2019 14.0624H45.2018C46.0646 14.0624 46.7643 13.3629 46.7643 12.5V9.37496H56.1537C57.0152 9.37496 57.7162 10.0759 57.7162 10.9375V17.6404H55.3724C52.7877 17.6404 50.6849 19.7432 50.6849 22.3279V32.4874H47.1482C44.7623 32.4874 42.7592 34.1577 42.2468 36.3903H26.4516C25.5886 36.3903 24.8891 37.0899 24.8891 37.9528C24.8891 38.8158 25.5886 39.5153 26.4516 39.5153H42.1198V48.8903H26.4518C25.5888 48.8903 24.8893 49.5898 24.8893 50.4528C24.8893 51.3157 25.5888 52.0153 26.4518 52.0153H42.12V61.3902H26.4518C25.5888 61.3902 24.8893 62.0898 24.8893 62.9527C24.8893 63.8157 25.5888 64.5152 26.4518 64.5152H42.12V70.2841H9.2501C8.38854 70.2843 7.68761 69.5833 7.68761 68.7218ZM73.3124 71.8468C73.3124 72.8963 72.4586 73.75 71.4091 73.75H47.1482C46.0987 73.75 45.2448 72.8963 45.2448 71.8468V37.5158C45.2448 36.4663 46.0987 35.6125 47.1482 35.6125H50.6849V37.175C50.6849 39.7597 52.7877 41.8625 55.3724 41.8625H63.1849C65.7696 41.8625 67.8724 39.7597 67.8724 37.175V35.6125H71.4091C72.4586 35.6125 73.3124 36.4663 73.3124 37.5158V71.8468Z" fill="#FF4A12"/>
<path d="M51.4662 46.8687C50.6034 46.8687 49.9037 47.5682 49.9037 48.4312V67.1812C49.9037 68.0441 50.6034 68.7437 51.4662 68.7437C52.329 68.7437 53.0287 68.0441 53.0287 67.1812V48.4312C53.0287 47.5682 52.3292 46.8687 51.4662 46.8687Z" fill="#FF4A12"/>
<path d="M59.2787 46.8687C58.4159 46.8687 57.7162 47.5682 57.7162 48.4312V67.1812C57.7162 68.0441 58.4159 68.7437 59.2787 68.7437C60.1415 68.7437 60.8412 68.0441 60.8412 67.1812V48.4312C60.8412 47.5682 60.1417 46.8687 59.2787 46.8687Z" fill="#FF4A12"/>
<path d="M67.0909 46.8687C66.2281 46.8687 65.5284 47.5682 65.5284 48.4312V67.1812C65.5284 68.0441 66.2281 68.7437 67.0909 68.7437C67.9538 68.7437 68.6534 68.0441 68.6534 67.1812V48.4312C68.6534 47.5682 67.9539 46.8687 67.0909 46.8687Z" fill="#FF4A12"/>
<path d="M19.0972 22.2646L16.0353 25.3265L15.0569 24.3481C14.4469 23.7378 13.4574 23.7381 12.8472 24.3481C12.237 24.9582 12.2369 25.9476 12.8472 26.5578L14.9305 28.6411C15.2235 28.934 15.621 29.0987 16.0353 29.0987C16.4497 29.0987 16.8472 28.934 17.1402 28.6411L21.3069 24.4743C21.917 23.8642 21.917 22.8748 21.3069 22.2645C20.6969 21.6546 19.7075 21.6546 19.0972 22.2646Z" fill="#FF4A12"/>
<path d="M26.4518 27.0154H45.2019C46.0647 27.0154 46.7644 26.3158 46.7644 25.4529C46.7644 24.5899 46.0647 23.8904 45.2019 23.8904H26.4518C25.5888 23.8904 24.8893 24.5899 24.8893 25.4529C24.8893 26.3158 25.5888 27.0154 26.4518 27.0154Z" fill="#FF4A12"/>
<path d="M19.0972 34.7647L16.0353 37.8266L15.0569 36.8481C14.4469 36.238 13.4574 36.238 12.8472 36.8481C12.237 37.4583 12.2369 38.4477 12.8472 39.0578L14.9305 41.1411C15.2235 41.4341 15.621 41.5988 16.0353 41.5988C16.4497 41.5988 16.8472 41.4341 17.1402 41.1411L21.3069 36.9744C21.917 36.3642 21.917 35.3749 21.3069 34.7646C20.6969 34.1546 19.7075 34.1547 19.0972 34.7647Z" fill="#FF4A12"/>
<path d="M19.0972 47.2648L16.0355 50.3265L15.057 49.348C14.4469 48.7379 13.4575 48.7379 12.8472 49.348C12.2369 49.9582 12.237 50.9476 12.8472 51.5579L14.9305 53.6412C15.2356 53.9463 15.6355 54.0988 16.0353 54.0988C16.4352 54.0988 16.8352 53.9462 17.1402 53.6412L21.3069 49.4745C21.917 48.8643 21.917 47.8749 21.3069 47.2646C20.6969 46.6546 19.7075 46.6546 19.0972 47.2648Z" fill="#FF4A12"/>
<path d="M19.0972 59.7645L16.0355 62.8262L15.057 61.8478C14.4469 61.2376 13.4575 61.2376 12.8472 61.8478C12.2369 62.458 12.237 63.4473 12.8472 64.0576L14.9305 66.1409C15.2356 66.4461 15.6355 66.5986 16.0353 66.5986C16.4352 66.5986 16.8352 66.4459 17.1402 66.1409L21.3069 61.9742C21.917 61.3641 21.917 60.3747 21.3069 59.7644C20.6969 59.1544 19.7075 59.1544 19.0972 59.7645Z" fill="#FF4A12"/>
</svg>
