<svg width="80" height="80" viewBox="0 0 80 80" fill="none" xmlns="http://www.w3.org/2000/svg">
<g clip-path="url(#clip0_1102_34004)">
<path d="M80 39.8438C80 17.8244 62.1806 0.00170898 40.1579 0.00170898V4.68902C59.5423 4.68902 75.3127 20.4595 75.3127 39.8438H80Z" fill="#FF4A12"/>
<path d="M61.2508 39.8437H65.9381C65.9381 25.6285 54.3731 14.0635 40.1579 14.0635V18.7508C51.7887 18.7508 61.2508 28.2129 61.2508 39.8437Z" fill="#FF4A12"/>
<path d="M40.1579 32.8128C44.0348 32.8128 47.1889 35.9669 47.1889 39.8438H51.8762C51.8762 33.3823 46.6194 28.1255 40.1579 28.1255V32.8128Z" fill="#FF4A12"/>
<path d="M18.1107 23.5945H0.553275L0.313285 25.6688C-1.19853 38.7351 2.77053 52.5728 12.0434 62.9805C22.7146 74.9574 38.0199 79.9984 54.0636 79.9984H56.4072V61.9174L40.0215 56.3133L33.0829 60.939C27.0569 58.1843 21.8427 52.97 19.0878 46.944L23.7131 40.0062L18.1107 23.5945ZM21.5399 58.487C24.7182 61.6653 28.4932 64.1833 32.4571 65.7687L33.6018 66.2265L40.6952 61.4975L51.7201 65.2681V75.2736C32.6965 74.6608 21.5788 66.6363 15.5433 59.8622C7.86501 51.2443 4.00048 39.8362 4.77966 28.2816H14.7578L18.5299 39.331L13.8004 46.4253L14.2582 47.5699C15.8437 51.5338 18.3616 55.3088 21.5399 58.487Z" fill="#FF4A12"/>
</g>
<defs>
<clipPath id="clip0_1102_34004">
<rect width="80" height="80" fill="white"/>
</clipPath>
</defs>
</svg>
