<svg width="60" height="60" viewBox="0 0 60 60" fill="none" xmlns="http://www.w3.org/2000/svg">
<g clip-path="url(#clip0_1163_50477)">
<path d="M29.9996 16.4902C35.4139 13.2315 39.2139 9.72563 39.1446 5.97328C39.1444 2.67961 36.4649 0 33.1713 0C32.0383 0 30.941 0.3225 29.9996 0.912773C29.0581 0.3225 27.9609 0 26.8279 0C23.5342 0 20.8546 2.67961 20.8546 5.97328C20.8298 9.49113 24.0329 12.9107 29.9996 16.4902ZM26.8279 3.51562C28.2617 3.47262 29.1837 4.98293 29.9996 5.86641C30.7361 5.04035 31.8822 3.38473 33.1713 3.51562C34.5264 3.51562 35.6289 4.61812 35.6289 5.97328C35.6289 7.19285 34.6236 9.26203 29.9996 12.3259C25.3756 9.26203 24.3703 7.19285 24.3703 5.97328C24.3703 4.61812 25.4728 3.51562 26.8279 3.51562Z" fill="#FF4A12"/>
<path d="M50.5268 34.8886C53.064 32.9535 54.7046 29.8998 54.7046 26.4697C54.7046 20.6339 49.9569 15.8863 44.1212 15.8863C38.2855 15.8863 33.5378 20.634 33.5378 26.4697C33.5378 29.8997 35.1783 32.9531 37.7154 34.8884C37.0949 35.1631 36.4948 35.4757 35.9188 35.8247C34.3528 34.4043 32.2759 33.5377 30.0001 33.5377C28.8056 33.5377 27.6663 33.7775 26.6264 34.2099C25.3529 33.0367 23.8879 32.069 22.284 31.3589C24.8216 29.4238 26.4625 26.3699 26.4625 22.9396C26.4625 17.1038 21.7147 12.3561 15.879 12.3561C10.0433 12.3561 5.29559 17.1039 5.29559 22.9396C5.29559 26.3697 6.93621 29.4232 9.47344 31.3584C3.89918 33.8256 0 39.4088 0 45.8862V60H60V49.4166C60 42.939 56.1008 37.3559 50.5268 34.8886ZM37.0533 26.4697C37.0533 22.5724 40.2239 19.4019 44.1211 19.4019C48.0183 19.4019 51.1889 22.5725 51.1889 26.4697C51.1889 30.3669 48.0183 33.5375 44.1211 33.5375C40.2239 33.5375 37.0533 30.367 37.0533 26.4697ZM35.3027 42.356C35.3027 45.28 32.9239 47.6588 30 47.6588C27.0761 47.6588 24.6973 45.28 24.6973 42.356C24.6973 39.4321 27.0761 37.0533 30 37.0533C32.9239 37.0533 35.3027 39.432 35.3027 42.356ZM8.81098 22.9395C8.81098 19.0422 11.9816 15.8716 15.8789 15.8716C19.7762 15.8716 22.9467 19.0423 22.9467 22.9395C22.9467 26.8366 19.7761 30.0073 15.8789 30.0073C11.9817 30.0073 8.81098 26.8368 8.81098 22.9395ZM19.5633 56.4844H3.51562V45.8862C3.51562 39.069 9.06176 33.5229 15.8789 33.5229C18.8127 33.5229 21.5106 34.5508 23.6327 36.2645C22.1163 37.849 21.1816 39.9947 21.1816 42.3559C21.1816 45.127 22.4677 47.6023 24.4729 49.2202C21.9182 50.7911 20.0784 53.4158 19.5633 56.4844ZM23.1533 56.4844C23.9367 53.4347 26.7093 51.1744 30 51.1744C33.2907 51.1744 36.0633 53.4347 36.8467 56.4844H23.1533ZM56.4844 56.4844H40.4367C39.9216 53.4158 38.0818 50.7911 35.5271 49.2202C37.5323 47.6024 38.8184 45.127 38.8184 42.3559C38.8184 41.0419 38.5274 39.7952 38.0098 38.6739C39.8135 37.6437 41.8993 37.0532 44.1211 37.0532C50.9382 37.0532 56.4844 42.5993 56.4844 49.4165V56.4844Z" fill="#FF4A12"/>
</g>
<defs>
<clipPath id="clip0_1163_50477">
<rect width="60" height="60" fill="white"/>
</clipPath>
</defs>
</svg>
