<svg width="60" height="60" viewBox="0 0 60 60" fill="none" xmlns="http://www.w3.org/2000/svg">
<g clip-path="url(#clip0_1163_50482)">
<path d="M17.5781 12.3047C17.5781 9.39691 15.2125 7.03125 12.3047 7.03125C9.39691 7.03125 7.03125 9.39691 7.03125 12.3047C7.03125 15.2125 9.39691 17.5781 12.3047 17.5781C15.2125 17.5781 17.5781 15.2125 17.5781 12.3047ZM10.5469 12.3047C10.5469 11.3354 11.3354 10.5469 12.3047 10.5469C13.2739 10.5469 14.0625 11.3354 14.0625 12.3047C14.0625 13.2739 13.2739 14.0625 12.3047 14.0625C11.3354 14.0625 10.5469 13.2739 10.5469 12.3047Z" fill="#FF4A12"/>
<path d="M55.8711 33.366C53.6116 32.2534 50.6665 31.6406 47.5781 31.6406C43.432 31.6406 39.889 32.6968 37.6841 34.3881L24.5783 31.1365C24.2859 28.5609 21.7625 26.4124 17.9102 25.3389L22.1535 19.6818C23.7601 17.54 24.6094 14.989 24.6094 12.3047C24.6094 5.51988 19.0895 0 12.3047 0C5.51988 0 0 5.51988 0 12.3047C0 14.989 0.849258 17.54 2.45602 19.6819L6.69926 25.339C2.59781 26.4819 0 28.8428 0 31.6406C0 35.6491 5.28984 38.6719 12.3047 38.6719C17.5049 38.6719 21.7562 37.0105 23.6082 34.5182L35.4423 37.4542C35.3316 37.8479 35.2734 38.2545 35.2734 38.6719C35.2734 40.1427 35.9864 41.4805 37.2348 42.5854L29.7395 46.9505C27.7236 46.217 25.3343 45.8203 22.8516 45.8203C15.8367 45.8203 10.5469 48.843 10.5469 52.8516C10.5469 57.8454 17.7532 60 22.8516 60C29.8171 60 35.2734 56.8601 35.2734 52.8516C35.2734 51.4068 34.5858 50.068 33.2978 48.9464L40.7674 44.5964C42.6935 45.3011 45.021 45.7031 47.5781 45.7031C52.7238 45.7031 60 43.6368 60 38.6719C60 36.5616 58.5336 34.6772 55.8711 33.366ZM29.5724 55.0716C27.8033 55.9695 25.3538 56.4844 22.8516 56.4844C17.5679 56.4844 14.0625 54.2978 14.0625 52.8516C14.0625 51.4181 17.4864 49.3359 22.8516 49.3359C28.2056 49.3359 31.7578 51.452 31.7578 52.8516C31.7578 53.5263 30.9 54.3977 29.5724 55.0716ZM3.51562 12.3047C3.51562 7.4584 7.4584 3.51562 12.3047 3.51562C17.151 3.51562 21.0938 7.4584 21.0938 12.3047C21.0938 14.2222 20.4877 16.0438 19.341 17.5724L12.3047 26.9532L5.26828 17.5723C4.12172 16.0438 3.51562 14.2222 3.51562 12.3047ZM12.3047 35.1562C6.93949 35.1562 3.51562 33.0741 3.51562 31.6406C3.51562 30.6463 5.41805 29.0674 9.00633 28.4148L10.8984 30.9375C11.2304 31.3801 11.7513 31.6406 12.3047 31.6406C12.858 31.6406 13.3789 31.3801 13.7109 30.9375L15.6032 28.4148C19.1913 29.0674 21.0938 30.6463 21.0938 31.6406C21.0938 33.0741 17.6699 35.1562 12.3047 35.1562ZM47.5781 42.1875C44.9828 42.1875 38.7891 41.088 38.7891 38.6719C38.7891 37.2045 42.3057 35.1562 47.5781 35.1562C52.9322 35.1562 56.4844 37.2723 56.4844 38.6719C56.4844 40.0714 52.9322 42.1875 47.5781 42.1875Z" fill="#FF4A12"/>
</g>
<defs>
<clipPath id="clip0_1163_50482">
<rect width="60" height="60" fill="white"/>
</clipPath>
</defs>
</svg>
