<svg width="60" height="60" viewBox="0 0 60 60" fill="none" xmlns="http://www.w3.org/2000/svg">
<g clip-path="url(#clip0_1163_50487)">
<path d="M24.7059 12.3529H35.2941V0H21.1765V19.4118H17.6471C17.6471 16.3727 16.1027 13.6878 13.7575 12.1002C15.0674 10.818 15.8824 9.03212 15.8824 7.05882C15.8824 3.16659 12.7158 0 8.82353 0C4.93129 0 1.76471 3.16659 1.76471 7.05882C1.76471 9.03212 2.57965 10.818 3.88953 12.1002C1.54435 13.6878 0 16.3727 0 19.4118V60H15.8824V56.4706H12.8454L17.6471 37.1573C17.6471 34.6014 17.6471 32.5021 17.6471 30H24.7059C24.7059 29.6422 24.7059 12.8655 24.7059 12.3529ZM24.7059 3.52941H31.7647V8.82353H24.7059V3.52941ZM5.29412 7.05882C5.29412 5.11271 6.87741 3.52941 8.82353 3.52941C10.7696 3.52941 12.3529 5.11271 12.3529 7.05882C12.3529 9.00494 10.7696 10.5882 8.82353 10.5882C6.87741 10.5882 5.29412 9.00494 5.29412 7.05882ZM9.20847 56.4706C7.56435 56.4706 5.16941 56.4706 3.52941 56.4706V37.0588H14.0347L9.20847 56.4706ZM21.1765 26.4706C20.0718 26.4706 11.8434 26.4706 10.5882 26.4706V30H14.1176V33.5294H3.52941V19.4118C3.52941 16.4925 5.90435 14.1176 8.82353 14.1176C11.7427 14.1176 14.1176 16.4925 14.1176 19.4118V22.9412H21.1765V26.4706Z" fill="#FF4A12"/>
<path d="M54.5313 43.6756C55.7318 42.4096 56.4706 40.7017 56.4706 38.8235C56.4706 34.9312 53.304 31.7646 49.4118 31.7646C45.5196 31.7646 42.353 34.9312 42.353 38.8235C42.353 40.7017 43.0918 42.4096 44.2923 43.6756C42.8008 44.503 41.5291 45.6798 40.5883 47.0951C39.6475 45.6798 38.3757 44.503 36.8843 43.6756C38.0847 42.4096 38.8236 40.7017 38.8236 38.8235C38.8236 34.9312 35.657 31.7646 31.7647 31.7646C27.8725 31.7646 24.7059 34.9312 24.7059 38.8235C24.7059 40.7017 25.4447 42.4096 26.6452 43.6756C23.387 45.483 21.1765 48.9585 21.1765 52.9411V59.9999H60V52.9411C60 48.9585 57.7896 45.483 54.5313 43.6756ZM45.8824 38.8235C45.8824 36.8774 47.4657 35.2941 49.4118 35.2941C51.3579 35.2941 52.9412 36.8774 52.9412 38.8235C52.9412 40.7696 51.3579 42.3529 49.4118 42.3529C47.4657 42.3529 45.8824 40.7696 45.8824 38.8235ZM28.2353 38.8235C28.2353 36.8774 29.8186 35.2941 31.7647 35.2941C33.7109 35.2941 35.2942 36.8774 35.2942 38.8235C35.2942 40.7696 33.7109 42.3529 31.7647 42.3529C29.8186 42.3529 28.2353 40.7696 28.2353 38.8235ZM38.8236 56.4705H24.7059V52.9411C24.7059 49.0489 27.8725 45.8823 31.7647 45.8823C35.657 45.8823 38.8236 49.0489 38.8236 52.9411V56.4705ZM56.4706 56.4705H42.353V52.9411C42.353 49.0489 45.5196 45.8823 49.4118 45.8823C53.304 45.8823 56.4706 49.0489 56.4706 52.9411V56.4705Z" fill="#FF4A12"/>
</g>
<defs>
<clipPath id="clip0_1163_50487">
<rect width="60" height="60" fill="white"/>
</clipPath>
</defs>
</svg>
