<svg width="46" height="48" viewBox="0 0 46 48" fill="none" xmlns="http://www.w3.org/2000/svg">
<path d="M43.3703 11.614C43.3703 11.614 37.6938 0.819075 24.0634 0.819075C10.433 0.819075 -0.509288 11.1383 0.0183098 24.8642C0.498619 37.368 10.2921 47.1809 23.3216 47.1809C35.3396 47.1809 46 38.4621 46 28.9134C46 28.9134 45.7181 26.3116 44.8836 25.8424L43.6318 25.7905L43.1747 25.1053C43.12 25.0237 42.9939 25.058 42.9883 25.1563L42.954 25.7386H41.9628L41.7264 25.3C41.6735 25.2017 41.5307 25.2054 41.4834 25.3074L41.2841 25.7386L40.3976 25.6866L40.189 25.1655L40.1352 24.8716C40.1083 24.7232 39.9572 24.6324 39.8135 24.6778L38.1027 25.2184L37.755 24.523C37.7188 24.4506 37.6113 24.4692 37.6011 24.5499L37.5288 25.1665H35.8597L33.218 21.298C33.0854 21.1033 32.7971 21.1061 32.6682 21.3027L31.8439 22.5581L28.5095 18.0165C28.3779 17.8376 28.1099 17.8367 27.9773 18.0147L26.4195 20.1075L25.9253 19.5799C25.7788 19.4232 25.5247 19.4454 25.407 19.6253L21.7778 25.1674H20.4008C20.2451 25.1674 20.0948 25.2193 19.9715 25.3148L19.2223 25.8981L19.0851 25.5411C19.0452 25.4372 18.8959 25.4428 18.8644 25.5503L18.7003 26.1067L18.335 25.5086C18.2617 25.389 18.08 25.4224 18.054 25.5605L17.8658 26.5759H16.9895C16.881 26.5759 16.7911 26.6593 16.7828 26.7678C16.7531 27.1628 16.9626 28.065 19.3262 28.5054C19.3262 28.5054 27.9838 30.1225 39.3026 28.9227C39.3026 28.9227 42.7445 28.2449 42.0667 29.9139C42.0667 29.9139 37.4518 41.7538 23.0082 41.7538C9.78119 41.7538 5.29614 30.2691 5.29614 24.0037C5.29614 19.4844 7.1738 7.12151 23.7074 6.13029C23.7074 6.13029 32.5217 5.97359 37.946 12.8583L43.3703 11.614Z" fill="white"/>
<path d="M39.208 20.5572L39.6113 19.8914C39.7319 19.8886 39.8608 19.8812 39.9989 19.8673C40.3049 19.8349 40.7639 19.7533 41.2238 19.6633L41.1645 20.0324L41.1533 20.1038L41.119 20.317L41.1079 20.3838L41.0736 20.6008L41.0634 20.6638L41.0282 20.8845L41.0189 20.9438L40.9827 21.1692L40.9734 21.2239L40.8112 22.2392L41.0801 22.1808L41.5761 21.006L41.7022 20.7074L41.9313 20.165L42.0574 19.8664L42.2308 19.4547C42.4431 19.4093 42.6156 19.3712 42.7176 19.349C43.132 19.259 43.2748 19.1774 43.3703 19.0903C43.5076 18.9642 43.5206 18.8056 43.5094 18.75V18.7491V18.7481C43.4965 18.6934 43.4186 18.5543 43.2415 18.4969C43.1191 18.457 42.9549 18.4412 42.5405 18.5312C42.4385 18.5534 42.266 18.5905 42.0537 18.6369L41.7254 18.3346L41.4871 18.1148L41.0541 17.7161L40.8158 17.4964L39.8774 16.6322L39.7421 16.6619C39.6781 16.6758 39.6475 16.7499 39.6837 16.8046L40.1769 17.5474L40.2075 17.5937L40.3336 17.7838L40.367 17.8339L40.4913 18.0203L40.5265 18.0731L40.648 18.2567L40.686 18.3133L40.8056 18.4931L40.8455 18.5534L41.0523 18.865C40.597 18.9735 40.1445 19.0894 39.8533 19.1867C39.7217 19.2303 39.6011 19.2776 39.4908 19.3249L38.8473 18.8863L38.7073 18.9317C38.6479 18.9512 38.6257 19.0235 38.6646 19.0727L39.0448 19.5502C38.8547 19.6624 38.7527 19.7477 38.7546 19.7588C38.7573 19.7727 38.7583 19.7774 38.7592 19.7792C38.7592 19.7792 38.7592 19.7802 38.7592 19.7811C38.7601 19.7829 38.7611 19.7885 38.7638 19.8015C38.7666 19.8126 38.8955 19.8478 39.1143 19.871L38.966 20.4635C38.9511 20.5238 39.0012 20.5813 39.0624 20.5739L39.208 20.5572Z" fill="white"/>
</svg>
