<svg width="64" height="64" viewBox="0 0 64 64" fill="none" xmlns="http://www.w3.org/2000/svg">
<path d="M58.0915 10.094C54.8336 10.094 52.183 12.7445 52.183 16.0025V31.3291L51.0386 32.5127C50.7386 31.8187 50.3036 31.171 49.7341 30.6106C47.361 28.2751 43.5206 28.2966 41.1735 30.6582L32 39.8892L22.8264 30.6582C20.4791 28.2965 16.639 28.2752 14.2657 30.6106C13.6964 31.1709 13.2614 31.8187 12.9613 32.5127L11.8169 31.3291V16.0025C11.8169 12.7446 9.16625 10.094 5.90837 10.094C2.6505 10.094 0 12.7446 0 16.0025V34.7006C0 36.6272 0.5215 38.5205 1.508 40.1754L1.53675 40.2236L12.6491 56.5542L11.3739 64H52.6263L51.3509 56.5542L62.4316 40.2701L62.492 40.1754C63.4785 38.5205 64 36.6274 64 34.7006V16.0025C64 12.7446 61.3495 10.094 58.0915 10.094ZM30.125 60.25H15.8208L16.6009 55.6957L4.70213 38.2096C4.079 37.146 3.75 35.934 3.75 34.7006V16.0025C3.75 14.8124 4.71825 13.844 5.9085 13.844C7.09875 13.844 8.067 14.8122 8.067 16.0025V32.8456L20.683 45.9104L20.6912 45.9024L20.8625 46.0795L23.5584 43.4727L16.7542 36.4356C15.9777 35.5205 16.0292 34.1366 16.896 33.2836C17.8026 32.3914 19.2698 32.3996 20.1665 33.3019L30.125 43.3225V60.25ZM60.25 34.7006C60.25 35.9339 59.921 37.146 59.2979 38.2095L47.3993 55.6956L48.1792 60.25H33.875V43.3225L43.8335 33.3017C44.7301 32.3994 46.1973 32.3914 47.104 33.2835C47.9709 34.1365 48.0223 35.5205 47.2458 36.4356L40.4416 43.4727L43.1375 46.0795L43.3088 45.9024L43.317 45.9104L55.933 32.8456V16.0025C55.933 14.8124 56.9014 13.844 58.0915 13.844C59.2816 13.844 60.25 14.8124 60.25 16.0025V34.7006Z" fill="#FF4A12"/>
<path d="M31.005 25.2104L32 25.8334L32.995 25.2104C37.6664 22.2856 41.0271 19.5629 43.2693 16.8869C45.4565 14.2764 46.5655 11.6621 46.5655 9.11687C46.5654 4.08975 42.4756 0 37.4486 0C35.4693 0 33.5618 0.64475 32 1.80975C30.4383 0.64475 28.5308 0 26.5514 0C21.5244 0 17.4346 4.08975 17.4346 9.11675C17.4346 11.662 18.5436 14.2762 20.7309 16.8867C22.9729 19.5629 26.3336 22.2855 31.005 25.2104ZM26.5514 3.75C28.0966 3.75 29.5685 4.41875 30.5895 5.58462L32 7.19537L33.4106 5.5845C34.4316 4.41875 35.9035 3.75 37.4486 3.75C40.4079 3.75 42.8154 6.1575 42.8154 9.11675C42.8154 12.6214 39.1775 16.7508 32 21.3985C24.8224 16.7508 21.1846 12.6213 21.1846 9.11675C21.1846 6.1575 23.5921 3.75 26.5514 3.75Z" fill="#FF4A12"/>
</svg>
