<svg width="64" height="64" viewBox="0 0 64 64" fill="none" xmlns="http://www.w3.org/2000/svg">
<g clip-path="url(#clip0_1093_20885)">
<path d="M8.11154 51.9897V51.4827C8.08866 51.654 8.08829 51.8244 8.11154 51.9897Z" fill="#FF4A12"/>
<path d="M21.4729 47.7083L40.8132 52.8906C41.8135 53.1586 42.8416 52.5651 43.1096 51.5648C43.3776 50.5645 42.7841 49.5361 41.7837 49.2685L22.4434 44.0862C21.4432 43.8178 20.415 44.4117 20.147 45.4121C19.879 46.4121 20.4726 47.4403 21.4729 47.7083Z" fill="#FF4A12"/>
<path d="M62.6099 10.4603L23.8116 0.0643461C22.8114 -0.203654 21.7832 0.389971 21.5152 1.3901L19.5735 8.63672H1.875C0.8395 8.63672 0 9.47622 0 10.5117V62.125C0 63.1605 0.8395 64 1.875 64H42.0416C42.8621 64 43.5578 63.4721 43.812 62.7381L48.281 63.9356C49.2812 64.2036 50.3094 63.6101 50.5774 62.6098L63.9355 12.7567C64.2036 11.7565 63.6101 10.7283 62.6099 10.4603ZM3.75 12.3868H18.5688L10.4253 42.7785H3.75V12.3868ZM3.75 60.25V46.5285H9.42037L8.157 51.2432C7.889 52.2435 8.48263 53.2716 9.48287 53.5396L34.5261 60.25H3.75ZM47.4405 59.8281L12.2647 50.4026L15.816 37.1487L50.9917 46.5742L47.4405 59.8281ZM37.0426 28.2821C42.9261 29.8586 46.6437 35.4825 46.0036 41.3553L22.7455 35.1232C25.1276 29.7172 31.1591 26.7056 37.0426 28.2821ZM35.0786 19.5781C35.6717 17.3643 37.9473 16.0506 40.161 16.6437C45.4196 18.2635 43.3751 25.8875 38.0129 24.6605C35.7992 24.0673 34.4855 21.7918 35.0786 19.5781ZM51.9624 42.9521L49.6586 42.3348C50.5179 36.4552 48.0071 30.6936 43.4053 27.2661C49.0648 23.6638 47.703 14.721 41.1316 13.0217C34.5608 11.2311 28.9556 18.2373 32.0405 24.221C26.3414 24.8883 21.2862 28.6227 19.0905 34.1441L16.7866 33.5267L24.6524 4.17197L59.8281 13.5975L51.9624 42.9521Z" fill="#FF4A12"/>
</g>
<defs>
<clipPath id="clip0_1093_20885">
<rect width="64" height="64" fill="white"/>
</clipPath>
</defs>
</svg>
