<svg width="64" height="64" viewBox="0 0 64 64" fill="none" xmlns="http://www.w3.org/2000/svg">
<g clip-path="url(#clip0_1093_21030)">
<path d="M60.228 16.8181L63.1181 15.013C63.667 14.6707 64 14.0696 64 13.4226C64 12.7761 63.667 12.1751 63.1181 11.8323L57.5586 8.36062L57.3315 1.80985C57.3091 1.16336 56.9551 0.574495 56.395 0.250764C55.8349 -0.0724778 55.1479 -0.0841965 54.5766 0.219514L48.7905 3.29813L43.0039 0.219514C42.4331 -0.0841965 41.7456 -0.0724778 41.1855 0.251253C40.6255 0.574495 40.2715 1.16336 40.249 1.80985L40.022 8.36062L34.4624 11.8323C33.9141 12.1751 33.5806 12.7761 33.5806 13.4226C33.5806 14.0696 33.9141 14.6707 34.4624 15.013L36.1494 16.0667H23.8335V11.9163C23.8335 10.8811 22.9941 10.0413 21.9585 10.0413H9.90869C8.87304 10.0413 8.03369 10.8811 8.03369 11.9163V16.0667H6.89599C3.09375 16.0667 0 19.1599 0 22.9622V57.1038C0 60.9065 3.09375 63.9998 6.89599 63.9998H57.1035C60.9062 63.9998 64 60.9065 64 57.1038V22.9622C64 20.2845 62.4643 17.9597 60.228 16.8181ZM42.8545 11.013C43.3833 10.6824 43.7139 10.1106 43.7353 9.48758L43.8931 4.94022L47.9097 7.07742C48.4604 7.37039 49.1211 7.37039 49.6714 7.07742L53.688 4.94022L53.8457 9.48758C53.8672 10.1106 54.1977 10.6824 54.7266 11.013L58.5854 13.4226L54.7266 15.8323C54.1977 16.1629 53.8672 16.7346 53.8457 17.3577L53.688 21.9051L49.6714 19.7678C49.1206 19.4754 48.4609 19.4754 47.9101 19.7678L43.8931 21.9051L43.7353 17.3577C43.7139 16.7346 43.3833 16.1629 42.8545 15.8323L38.9956 13.4226L42.8545 11.013ZM11.7837 13.7913H20.0835V16.0667H11.7837V13.7913ZM60.25 57.1038C60.25 58.8386 58.8389 60.2498 57.1035 60.2498H6.89599C5.16113 60.2498 3.75 58.8386 3.75 57.1038V22.9622C3.75 21.2278 5.16113 19.8167 6.89599 19.8167H40.0683L40.249 25.0354C40.2715 25.6819 40.6255 26.2708 41.1855 26.5945C41.4751 26.7615 41.7988 26.8455 42.123 26.8455C42.4253 26.8455 42.728 26.7722 43.0034 26.6258L48.7905 23.5471L54.5766 26.6258C55.1474 26.9295 55.8345 26.9177 56.395 26.5945C56.9551 26.2708 57.3091 25.6819 57.3315 25.0354L57.5117 19.844C59.0542 20.0447 60.25 21.366 60.25 22.9622V57.1038Z" fill="#FF4A12"/>
<path d="M32 26.1084C23.2144 26.1084 16.0664 33.2559 16.0664 42.0415C16.0664 50.8271 23.2144 57.9751 32 57.9751C40.7856 57.9751 47.9336 50.8271 47.9336 42.0415C47.9336 33.2559 40.7856 26.1084 32 26.1084ZM32 54.2251C25.2822 54.2251 19.8164 48.7593 19.8164 42.0415C19.8164 35.3237 25.2822 29.8584 32 29.8584C38.7178 29.8584 44.1836 35.3237 44.1836 42.0415C44.1836 48.7593 38.7178 54.2251 32 54.2251Z" fill="#FF4A12"/>
<path d="M32 32.1333C26.5366 32.1333 22.0918 36.5781 22.0918 42.0415C22.0918 47.5054 26.5366 51.9502 32 51.9502C37.4634 51.9502 41.9087 47.5054 41.9087 42.0415C41.9087 36.5781 37.4634 32.1333 32 32.1333ZM32 48.2002C28.6045 48.2002 25.8418 45.4375 25.8418 42.0415C25.8418 38.646 28.6045 35.8833 32 35.8833C35.396 35.8833 38.1587 38.646 38.1587 42.0415C38.1587 45.4375 35.396 48.2002 32 48.2002Z" fill="#FF4A12"/>
<path d="M10.9126 22.0918C8.21777 22.0918 6.0249 24.2842 6.0249 26.9795C6.0249 29.6743 8.21777 31.8667 10.9126 31.8667C13.6074 31.8667 15.8003 29.6743 15.8003 26.9795C15.8003 24.2842 13.6074 22.0918 10.9126 22.0918ZM10.9126 28.1167C10.2852 28.1167 9.7749 27.6064 9.7749 26.979C9.7749 26.352 10.2852 25.8418 10.9126 25.8418C11.54 25.8418 12.0503 26.352 12.0503 26.979C12.0503 27.6064 11.54 28.1167 10.9126 28.1167Z" fill="#FF4A12"/>
</g>
<defs>
<clipPath id="clip0_1093_21030">
<rect width="64" height="64" fill="white"/>
</clipPath>
</defs>
</svg>
