<svg width="64" height="64" viewBox="0 0 64 64" fill="none" xmlns="http://www.w3.org/2000/svg">
<g clip-path="url(#clip0_1093_20766)">
<path d="M37.6241 0V20.2943L27.2609 40.354L20.8064 28.5208L0.0467529 64H63.9531L41.3741 20.2943V15H59.8776L54.8776 7.5L59.8776 0L37.6241 0ZM39.4991 24.8351L44.8686 35.2289L43.2491 36.8484L39.4991 33.0984L35.7491 36.8484L34.1296 35.2289L39.4991 24.8351ZM6.58575 60.25L20.6919 36.142L25.1831 44.376L16.9824 60.25H6.58575ZM21.2033 60.25L32.3231 38.7256L35.7491 42.1516L39.4991 38.4016L43.2491 42.1516L46.6751 38.7256L57.795 60.25H21.2033ZM52.8706 11.25H41.3741V3.75H52.8706L50.3706 7.5L52.8706 11.25Z" fill="#FF4A12"/>
</g>
<defs>
<clipPath id="clip0_1093_20766">
<rect width="64" height="64" fill="white"/>
</clipPath>
</defs>
</svg>
