<svg width="64" height="64" viewBox="0 0 64 64" fill="none" xmlns="http://www.w3.org/2000/svg">
<path d="M59.498 31.8359C61.0312 30.394 61.9917 28.3491 61.9917 26.0835C61.9917 21.7271 58.4478 18.1836 54.0918 18.1836C49.7358 18.1836 46.1919 21.7271 46.1919 26.0835C46.1919 27.5547 46.5972 28.9326 47.3003 30.1133C46.6724 29.9595 46.084 29.6606 45.5864 29.2344L37.4805 22.2861C36.1636 21.1577 34.2944 20.8965 32.7188 21.6216C32.4634 21.7388 32.2241 21.8813 32 22.041C31.7759 21.8813 31.5366 21.7388 31.2812 21.6211C29.7056 20.8965 27.8364 21.1577 26.5195 22.2861L18.4136 29.2339C17.916 29.6606 17.3276 29.9595 16.6997 30.1133C17.4028 28.9326 17.8081 27.5547 17.8081 26.083C17.8081 21.7271 14.2642 18.1831 9.9082 18.1831C5.55225 18.1831 2.0083 21.7271 2.0083 26.083C2.0083 28.3491 2.96875 30.394 4.50195 31.8359C1.93604 33.5132 0 36.481 0 40.1396V58.2168C0 59.252 0.839355 60.0918 1.875 60.0918H17.9414C18.9771 60.0918 19.8164 59.252 19.8164 58.2168V41.0039L31.3828 31.0903C31.6021 30.9023 31.8071 30.7012 32 30.4907C32.1929 30.7012 32.3979 30.9023 32.6172 31.0903L44.1831 41.0039V58.2168C44.1831 59.252 45.0229 60.0918 46.0581 60.0918H62.125C63.1606 60.0918 64 59.252 64 58.2168V40.1396C64 36.479 62.063 33.5127 59.498 31.8359ZM54.0918 21.9336C56.3799 21.9336 58.2417 23.7949 58.2417 26.0835C58.2417 28.3716 56.3799 30.2334 54.0918 30.2334C51.8032 30.2334 49.9414 28.3716 49.9414 26.0835C49.9414 23.7949 51.8032 21.9336 54.0918 21.9336ZM9.9082 21.9336C12.1968 21.9336 14.0586 23.7949 14.0586 26.0835C14.0586 28.3716 12.1968 30.2334 9.9082 30.2334C7.62012 30.2334 5.7583 28.3716 5.7583 26.0835C5.7583 23.7949 7.62012 21.9336 9.9082 21.9336ZM28.9424 28.2432L16.7212 38.7183C16.3057 39.0742 16.0664 39.5942 16.0664 40.1416V56.3418H3.75V40.1396C3.75 36.7456 6.49414 33.9834 9.9082 33.9834H15.7129C17.5972 33.9834 19.4233 33.3081 20.8545 32.0815L28.9604 25.1338C29.4146 24.7437 30.125 25.0649 30.125 25.6714C30.125 26.6616 29.6938 27.5986 28.9424 28.2432ZM60.25 56.3418H47.9336V40.1416C47.9336 39.5942 47.6943 39.0742 47.2788 38.7183L35.0576 28.2432C34.3062 27.5986 33.875 26.6616 33.875 25.6694C33.875 25.0684 34.583 24.7417 35.04 25.1338L43.146 32.0815C44.5767 33.3081 46.4028 33.9834 48.2871 33.9834H54.0938C57.4932 33.9834 60.25 36.7339 60.25 40.1396V56.3418Z" fill="#FF4A12"/>
<path d="M32 15.9082C33.0356 15.9082 33.875 15.0688 33.875 14.0332V6C33.875 4.96436 33.0356 4.125 32 4.125C30.9644 4.125 30.125 4.96436 30.125 6V14.0332C30.125 15.0688 30.9644 15.9082 32 15.9082Z" fill="#FF4A12"/>
<path d="M22.6411 17.3677C23.0068 17.7334 23.4868 17.917 23.9668 17.917C24.4463 17.917 24.9263 17.7339 25.2925 17.3677C26.0244 16.6353 26.0244 15.4482 25.2925 14.7158L21.2754 10.6992C20.5435 9.9668 19.3564 9.9668 18.624 10.6992C17.8916 11.4316 17.8916 12.6187 18.624 13.3511L22.6411 17.3677Z" fill="#FF4A12"/>
<path d="M40.0332 17.9171C40.5132 17.9171 40.9932 17.7335 41.3589 17.3677L45.376 13.3511C46.1079 12.6187 46.1079 11.4317 45.376 10.6993C44.6436 9.96686 43.4565 9.96735 42.7241 10.6993L38.7075 14.7159C37.9751 15.4483 37.9751 16.6353 38.7075 17.3677C39.0737 17.7335 39.5537 17.9171 40.0332 17.9171Z" fill="#FF4A12"/>
</svg>
