<svg width="64" height="64" viewBox="0 0 64 64" fill="none" xmlns="http://www.w3.org/2000/svg">
<g clip-path="url(#clip0_1093_21738)">
<path d="M33.8749 48.125C33.8749 47.0895 33.0355 46.25 32 46.25C30.9645 46.25 30.125 47.0895 30.125 48.125V51.1249C30.125 52.1604 30.9645 52.9999 32 52.9999C33.0355 52.9999 33.8749 52.1604 33.8749 51.1249V48.125Z" fill="#FF4A12"/>
<path d="M61.549 17.5348C62.5077 17.8522 63.5935 17.3207 63.909 16.3261C64.2268 15.3405 63.6857 14.2839 62.7002 13.966C60.3023 13.1925 59.1858 11.0005 58.8747 10.2752V7.4121C59.6242 7.96547 60.5094 8.44959 61.549 8.78496C61.7404 8.84671 61.9342 8.87608 62.125 8.87608C62.9167 8.87608 63.6528 8.37046 63.909 7.57635C64.2268 6.59074 63.6857 5.53413 62.7002 5.21626C59.8239 4.2884 58.7903 1.31795 58.7802 1.28808L58.784 1.30008L58.7824 1.30058C58.6033 0.746834 58.1714 0.283591 57.5753 0.091344C56.59 -0.226651 55.5332 0.314465 55.2154 1.30008C55.2057 1.3297 54.1796 4.28703 51.2992 5.21626C50.3137 5.53413 49.7724 6.59074 50.0904 7.57635C50.3466 8.37059 51.0825 8.87608 51.8744 8.87608C52.0652 8.87608 52.2592 8.84683 52.4504 8.78496C53.49 8.44959 54.3752 7.96547 55.1247 7.4121V10.2788C54.8199 10.9938 53.7084 13.1889 51.2992 13.966C50.3137 14.2839 49.7724 15.3405 50.0904 16.3261C50.4059 17.3207 51.4917 17.8522 52.4504 17.5348C53.49 17.1995 54.3752 16.7153 55.1247 16.162V27.8924L39.8536 13.3909C39.1591 12.7115 37.9659 12.7115 37.2714 13.3909L32.0003 18.3967L26.7289 13.3909C26.0344 12.7115 24.8412 12.7116 24.1467 13.3909L8.87545 27.8924V16.162C9.62494 16.7153 10.5102 17.1995 11.5498 17.5348C12.5085 17.8522 13.5943 17.3207 13.9097 16.3261C14.2276 15.3405 13.6865 14.2839 12.701 13.966C10.3031 13.1925 9.18657 11.0005 8.87545 10.2752V7.4121C9.62494 7.96547 10.5102 8.44959 11.5498 8.78496C11.7412 8.84671 11.935 8.87608 12.1258 8.87608C12.9175 8.87608 13.6536 8.37046 13.9097 7.57635C14.2276 6.59074 13.6865 5.53413 12.701 5.21626C9.82469 4.2884 8.79108 1.31795 8.78095 1.28808L8.78483 1.30008L8.7832 1.30058C8.60408 0.746834 8.17221 0.283591 7.5761 0.091344C6.59074 -0.226651 5.534 0.314465 5.21613 1.30008C5.20651 1.3297 4.1804 4.28703 1.29994 5.21626C0.31446 5.53413 -0.226782 6.59074 0.0912135 7.57635C0.347335 8.37046 1.08332 8.87608 1.87506 8.87608C2.06581 8.87608 2.2598 8.84683 2.45105 8.78496C3.49066 8.44959 4.3759 7.96547 5.12538 7.4121V10.2788C4.82051 10.9938 3.70903 13.1889 1.29982 13.966C0.314335 14.2839 -0.226907 15.3405 0.0910885 16.3261C0.406584 17.3207 1.49232 17.8522 2.45105 17.5348C3.49066 17.1995 4.3759 16.7153 5.12538 16.162V31.4534L0.584456 35.7655C0.215462 36.117 0.0014649 36.6155 0.000589915 37.1251V62.1248C0.000589915 63.1602 0.840077 63.9997 1.87556 63.9997H62.1246C63.1601 63.9997 63.9996 63.1602 63.9996 62.1248V37.1251C63.9987 36.6155 63.7847 36.117 63.4157 35.7655L58.8747 31.4534V16.162C59.6242 16.7153 60.5094 17.1995 61.549 17.5348ZM38.5625 17.3362L57.4272 35.2502H49.7482L34.7232 20.9823L38.5625 17.3362ZM32.0001 55.9998C30.9646 55.9998 30.1251 56.8393 30.1251 57.8748V60.2498H15.9212L22.8249 39.0001H30.1251V41.3751C30.1251 42.4106 30.9646 43.25 32.0001 43.25C33.0356 43.25 33.8751 42.4106 33.8751 41.3751V39.0001H41.1753L48.079 60.2498H33.8751V57.8748C33.8751 56.8393 33.0356 55.9998 32.0001 55.9998ZM6.57286 35.2502L25.4377 17.3361L44.3025 35.2502H6.57286ZM3.75053 39.0001H18.882L11.9784 60.2498H3.75053V39.0001ZM60.2496 60.2498H52.0218L45.1181 39.0001H60.2496V60.2498Z" fill="#FF4A12"/>
<path d="M32 11.2506C35.1016 11.2506 37.6249 8.72722 37.6249 5.62564C37.6249 2.52407 35.1016 0.000732422 32 0.000732422C28.8985 0.000732422 26.3751 2.52407 26.3751 5.62564C26.3751 8.72722 28.8985 11.2506 32 11.2506ZM32 3.75067C33.0339 3.75067 33.875 4.59179 33.875 5.62564C33.875 6.6595 33.0339 7.50062 32 7.50062C30.9662 7.50062 30.1251 6.6595 30.1251 5.62564C30.1251 4.59179 30.9662 3.75067 32 3.75067Z" fill="#FF4A12"/>
</g>
<defs>
<clipPath id="clip0_1093_21738">
<rect width="64" height="64" fill="white"/>
</clipPath>
</defs>
</svg>
